<mxfile host="Electron" modified="2024-04-02T16:46:32.406Z" agent="Mozilla/5.0 (Windows NT 10.0; Win64; x64) AppleWebKit/537.36 (KHTML, like Gecko) draw.io/24.1.0 Chrome/120.0.6099.109 Electron/28.1.0 Safari/537.36" etag="gCVzI_j5oUg1TO0oTd3i" version="24.1.0" type="device" pages="2">
  <diagram name="Page-1" id="rTvVMeKKbaZYtuKHGJtj">
    <mxGraphModel dx="4614" dy="1731" grid="1" gridSize="10" guides="1" tooltips="1" connect="1" arrows="1" fold="1" page="1" pageScale="1" pageWidth="827" pageHeight="1169" math="0" shadow="0">
      <root>
        <mxCell id="0" />
        <mxCell id="1" parent="0" />
        <mxCell id="sw4C1m9xNGduymlIPeQ3-3" value="Nhân viên" style="swimlane;startSize=20;whiteSpace=wrap;html=1;fillColor=#a20025;fontColor=#ffffff;strokeColor=#6F0000;" parent="1" vertex="1">
          <mxGeometry x="-940" y="100" width="951" height="2040" as="geometry" />
        </mxCell>
        <mxCell id="sw4C1m9xNGduymlIPeQ3-11" style="rounded=0;orthogonalLoop=1;jettySize=auto;html=1;entryX=0;entryY=0.5;entryDx=0;entryDy=0;" parent="sw4C1m9xNGduymlIPeQ3-3" target="sw4C1m9xNGduymlIPeQ3-10" edge="1">
          <mxGeometry relative="1" as="geometry">
            <mxPoint x="150" y="172" as="sourcePoint" />
          </mxGeometry>
        </mxCell>
        <mxCell id="sw4C1m9xNGduymlIPeQ3-7" value="&lt;font style=&quot;font-size: 18px;&quot;&gt;Đăng nhập hệ thống&lt;/font&gt;" style="rounded=1;whiteSpace=wrap;html=1;absoluteArcSize=1;arcSize=14;strokeWidth=2;" parent="sw4C1m9xNGduymlIPeQ3-3" vertex="1">
          <mxGeometry x="20" y="130" width="140" height="60" as="geometry" />
        </mxCell>
        <mxCell id="sw4C1m9xNGduymlIPeQ3-161" style="edgeStyle=orthogonalEdgeStyle;rounded=0;orthogonalLoop=1;jettySize=auto;html=1;exitX=0.5;exitY=1;exitDx=0;exitDy=0;" parent="sw4C1m9xNGduymlIPeQ3-3" source="sw4C1m9xNGduymlIPeQ3-8" target="sw4C1m9xNGduymlIPeQ3-7" edge="1">
          <mxGeometry relative="1" as="geometry" />
        </mxCell>
        <mxCell id="sw4C1m9xNGduymlIPeQ3-8" value="" style="ellipse;html=1;shape=startState;fillColor=#000000;strokeColor=#ff0000;" parent="sw4C1m9xNGduymlIPeQ3-3" vertex="1">
          <mxGeometry x="10" y="30" width="80" height="60" as="geometry" />
        </mxCell>
        <mxCell id="sw4C1m9xNGduymlIPeQ3-10" value="&lt;font style=&quot;font-size: 18px;&quot;&gt;Nhập username,password&lt;/font&gt;" style="rounded=1;whiteSpace=wrap;html=1;absoluteArcSize=1;arcSize=14;strokeWidth=2;" parent="sw4C1m9xNGduymlIPeQ3-3" vertex="1">
          <mxGeometry x="311" y="132" width="230" height="80" as="geometry" />
        </mxCell>
        <mxCell id="sw4C1m9xNGduymlIPeQ3-53" value="&lt;font style=&quot;font-size: 24px;&quot;&gt;Qúet Face Id&lt;/font&gt;" style="rounded=1;whiteSpace=wrap;html=1;absoluteArcSize=1;arcSize=14;strokeWidth=2;" parent="sw4C1m9xNGduymlIPeQ3-3" vertex="1">
          <mxGeometry x="30" y="250" width="180" height="80" as="geometry" />
        </mxCell>
        <mxCell id="sw4C1m9xNGduymlIPeQ3-4" value="Hệ thống" style="swimlane;startSize=20;whiteSpace=wrap;html=1;fillColor=#a20025;fontColor=#ffffff;strokeColor=#6F0000;" parent="1" vertex="1">
          <mxGeometry x="10" y="100" width="2120" height="2030" as="geometry" />
        </mxCell>
        <mxCell id="sw4C1m9xNGduymlIPeQ3-12" value="&lt;font style=&quot;font-size: 24px;&quot;&gt;Kiểm tra tài khoản&lt;/font&gt;" style="rounded=1;whiteSpace=wrap;html=1;absoluteArcSize=1;arcSize=14;strokeWidth=2;" parent="sw4C1m9xNGduymlIPeQ3-4" vertex="1">
          <mxGeometry x="450" y="40" width="220" height="70" as="geometry" />
        </mxCell>
        <mxCell id="sw4C1m9xNGduymlIPeQ3-14" value="&lt;font style=&quot;font-size: 18px;&quot;&gt;Hiển thị thông báo&lt;/font&gt;&lt;div&gt;&lt;font size=&quot;3&quot;&gt;&quot;Vui lòng nhập lại&quot;&lt;/font&gt;&lt;/div&gt;" style="rounded=1;whiteSpace=wrap;html=1;absoluteArcSize=1;arcSize=14;strokeWidth=2;" parent="sw4C1m9xNGduymlIPeQ3-4" vertex="1">
          <mxGeometry x="127" y="140" width="190" height="70" as="geometry" />
        </mxCell>
        <mxCell id="sw4C1m9xNGduymlIPeQ3-143" style="edgeStyle=orthogonalEdgeStyle;rounded=0;orthogonalLoop=1;jettySize=auto;html=1;exitX=0;exitY=0.5;exitDx=0;exitDy=0;exitPerimeter=0;entryX=1;entryY=0.5;entryDx=0;entryDy=0;" parent="sw4C1m9xNGduymlIPeQ3-4" source="sw4C1m9xNGduymlIPeQ3-25" target="sw4C1m9xNGduymlIPeQ3-14" edge="1">
          <mxGeometry relative="1" as="geometry" />
        </mxCell>
        <mxCell id="sw4C1m9xNGduymlIPeQ3-144" value="Không hợp lệ" style="edgeLabel;html=1;align=center;verticalAlign=middle;resizable=0;points=[];" parent="sw4C1m9xNGduymlIPeQ3-143" vertex="1" connectable="0">
          <mxGeometry x="0.3345" y="-1" relative="1" as="geometry">
            <mxPoint as="offset" />
          </mxGeometry>
        </mxCell>
        <mxCell id="sw4C1m9xNGduymlIPeQ3-25" value="" style="points=[[0.25,0.25,0],[0.5,0,0],[0.75,0.25,0],[1,0.5,0],[0.75,0.75,0],[0.5,1,0],[0.25,0.75,0],[0,0.5,0]];shape=mxgraph.bpmn.gateway2;html=1;verticalLabelPosition=bottom;labelBackgroundColor=#ffffff;verticalAlign=top;align=center;perimeter=rhombusPerimeter;outlineConnect=0;outline=none;symbol=none;fillColor=#a20025;fontColor=#ffffff;strokeColor=#6F0000;" parent="sw4C1m9xNGduymlIPeQ3-4" vertex="1">
          <mxGeometry x="505" y="170" width="70" height="60" as="geometry" />
        </mxCell>
        <mxCell id="sw4C1m9xNGduymlIPeQ3-49" style="edgeStyle=orthogonalEdgeStyle;rounded=0;orthogonalLoop=1;jettySize=auto;html=1;exitX=0.5;exitY=1;exitDx=0;exitDy=0;exitPerimeter=0;entryX=0;entryY=0.75;entryDx=0;entryDy=0;" parent="sw4C1m9xNGduymlIPeQ3-4" source="sw4C1m9xNGduymlIPeQ3-15" target="sw4C1m9xNGduymlIPeQ3-48" edge="1">
          <mxGeometry relative="1" as="geometry" />
        </mxCell>
        <mxCell id="sw4C1m9xNGduymlIPeQ3-50" value="Yes" style="edgeLabel;html=1;align=center;verticalAlign=middle;resizable=0;points=[];" parent="sw4C1m9xNGduymlIPeQ3-49" vertex="1" connectable="0">
          <mxGeometry x="0.528" y="-4" relative="1" as="geometry">
            <mxPoint as="offset" />
          </mxGeometry>
        </mxCell>
        <mxCell id="sw4C1m9xNGduymlIPeQ3-15" value="Số lần nhập&amp;lt;3" style="points=[[0.25,0.25,0],[0.5,0,0],[0.75,0.25,0],[1,0.5,0],[0.75,0.75,0],[0.5,1,0],[0.25,0.75,0],[0,0.5,0]];shape=mxgraph.bpmn.gateway2;html=1;verticalLabelPosition=bottom;labelBackgroundColor=#ffffff;verticalAlign=top;align=center;perimeter=rhombusPerimeter;outlineConnect=0;outline=none;symbol=none;fillColor=#a20025;fontColor=#ffffff;strokeColor=#6F0000;" parent="sw4C1m9xNGduymlIPeQ3-4" vertex="1">
          <mxGeometry x="20" y="140" width="50" height="50" as="geometry" />
        </mxCell>
        <mxCell id="sw4C1m9xNGduymlIPeQ3-42" style="edgeStyle=orthogonalEdgeStyle;rounded=0;orthogonalLoop=1;jettySize=auto;html=1;entryX=1;entryY=0.5;entryDx=0;entryDy=0;entryPerimeter=0;" parent="sw4C1m9xNGduymlIPeQ3-4" target="sw4C1m9xNGduymlIPeQ3-15" edge="1">
          <mxGeometry relative="1" as="geometry">
            <mxPoint x="130" y="165" as="sourcePoint" />
          </mxGeometry>
        </mxCell>
        <mxCell id="sw4C1m9xNGduymlIPeQ3-32" value="" style="ellipse;html=1;shape=endState;fillColor=#000000;strokeColor=#ff0000;" parent="sw4C1m9xNGduymlIPeQ3-4" vertex="1">
          <mxGeometry x="1857" y="1510" width="90" height="90" as="geometry" />
        </mxCell>
        <mxCell id="sw4C1m9xNGduymlIPeQ3-48" value="&lt;font style=&quot;font-size: 18px;&quot;&gt;Hiển thị thông báo&lt;/font&gt;&lt;div&gt;&lt;font size=&quot;3&quot;&gt;&quot;Lỗi&quot;&lt;/font&gt;&lt;/div&gt;" style="rounded=1;whiteSpace=wrap;html=1;absoluteArcSize=1;arcSize=14;strokeWidth=2;" parent="sw4C1m9xNGduymlIPeQ3-4" vertex="1">
          <mxGeometry x="260" y="310" width="160" height="70" as="geometry" />
        </mxCell>
        <mxCell id="sw4C1m9xNGduymlIPeQ3-67" value="&lt;font style=&quot;font-size: 24px;&quot;&gt;Kiểm tra GPS&lt;/font&gt;" style="rounded=1;whiteSpace=wrap;html=1;absoluteArcSize=1;arcSize=14;strokeWidth=2;" parent="sw4C1m9xNGduymlIPeQ3-4" vertex="1">
          <mxGeometry x="267" y="870" width="180" height="80" as="geometry" />
        </mxCell>
        <mxCell id="sw4C1m9xNGduymlIPeQ3-160" style="edgeStyle=orthogonalEdgeStyle;rounded=0;orthogonalLoop=1;jettySize=auto;html=1;exitX=0.5;exitY=1;exitDx=0;exitDy=0;entryX=0.5;entryY=1;entryDx=0;entryDy=0;" parent="sw4C1m9xNGduymlIPeQ3-4" source="sw4C1m9xNGduymlIPeQ3-73" target="sw4C1m9xNGduymlIPeQ3-32" edge="1">
          <mxGeometry relative="1" as="geometry" />
        </mxCell>
        <mxCell id="sw4C1m9xNGduymlIPeQ3-73" value="&lt;font style=&quot;font-size: 24px;&quot;&gt;Hiển thị thông báo&lt;/font&gt;&lt;div&gt;&lt;font style=&quot;font-size: 24px;&quot;&gt;&quot;Gương mặt không trùng khớp&quot;&lt;/font&gt;&lt;/div&gt;" style="rounded=1;whiteSpace=wrap;html=1;absoluteArcSize=1;arcSize=14;strokeWidth=2;" parent="sw4C1m9xNGduymlIPeQ3-4" vertex="1">
          <mxGeometry x="280" y="1060" width="240" height="90" as="geometry" />
        </mxCell>
        <mxCell id="sw4C1m9xNGduymlIPeQ3-86" style="edgeStyle=orthogonalEdgeStyle;rounded=0;orthogonalLoop=1;jettySize=auto;html=1;exitX=1;exitY=0.5;exitDx=0;exitDy=0;exitPerimeter=0;entryX=0.5;entryY=0;entryDx=0;entryDy=0;" parent="sw4C1m9xNGduymlIPeQ3-4" source="sw4C1m9xNGduymlIPeQ3-80" edge="1">
          <mxGeometry relative="1" as="geometry">
            <mxPoint x="607.0000000000005" y="812" as="targetPoint" />
          </mxGeometry>
        </mxCell>
        <mxCell id="sw4C1m9xNGduymlIPeQ3-88" value="Yes" style="edgeLabel;html=1;align=center;verticalAlign=middle;resizable=0;points=[];" parent="sw4C1m9xNGduymlIPeQ3-86" vertex="1" connectable="0">
          <mxGeometry x="-0.3083" y="2" relative="1" as="geometry">
            <mxPoint as="offset" />
          </mxGeometry>
        </mxCell>
        <mxCell id="sw4C1m9xNGduymlIPeQ3-80" value="&lt;font style=&quot;font-size: 14px;&quot;&gt;Ở trong phạm vi chấm công&lt;/font&gt;" style="points=[[0.25,0.25,0],[0.5,0,0],[0.75,0.25,0],[1,0.5,0],[0.75,0.75,0],[0.5,1,0],[0.25,0.75,0],[0,0.5,0]];shape=mxgraph.bpmn.gateway2;html=1;verticalLabelPosition=bottom;labelBackgroundColor=#ffffff;verticalAlign=top;align=center;perimeter=rhombusPerimeter;outlineConnect=0;outline=none;symbol=none;fillColor=#a20025;fontColor=#ffffff;strokeColor=#6F0000;" parent="sw4C1m9xNGduymlIPeQ3-4" vertex="1">
          <mxGeometry x="320" y="730" width="52" height="50" as="geometry" />
        </mxCell>
        <mxCell id="sw4C1m9xNGduymlIPeQ3-81" style="edgeStyle=orthogonalEdgeStyle;rounded=0;orthogonalLoop=1;jettySize=auto;html=1;exitX=0.435;exitY=0.039;exitDx=0;exitDy=0;entryX=0.5;entryY=1;entryDx=0;entryDy=0;entryPerimeter=0;exitPerimeter=0;" parent="sw4C1m9xNGduymlIPeQ3-4" source="sw4C1m9xNGduymlIPeQ3-67" target="sw4C1m9xNGduymlIPeQ3-80" edge="1">
          <mxGeometry relative="1" as="geometry">
            <mxPoint x="347" y="817" as="sourcePoint" />
          </mxGeometry>
        </mxCell>
        <mxCell id="sw4C1m9xNGduymlIPeQ3-82" value="&lt;font style=&quot;font-size: 24px;&quot;&gt;Hiển thị thông báo&lt;/font&gt;&lt;div&gt;&lt;font style=&quot;font-size: 24px;&quot;&gt;&quot;Sai vị trí&quot;&lt;/font&gt;&lt;/div&gt;" style="rounded=1;whiteSpace=wrap;html=1;absoluteArcSize=1;arcSize=14;strokeWidth=2;" parent="sw4C1m9xNGduymlIPeQ3-4" vertex="1">
          <mxGeometry x="507" y="630" width="233" height="60" as="geometry" />
        </mxCell>
        <mxCell id="sw4C1m9xNGduymlIPeQ3-98" style="edgeStyle=orthogonalEdgeStyle;rounded=0;orthogonalLoop=1;jettySize=auto;html=1;exitX=0.5;exitY=1;exitDx=0;exitDy=0;" parent="sw4C1m9xNGduymlIPeQ3-4" source="sw4C1m9xNGduymlIPeQ3-87" edge="1">
          <mxGeometry relative="1" as="geometry">
            <mxPoint x="606.6153846153843" y="990" as="targetPoint" />
          </mxGeometry>
        </mxCell>
        <mxCell id="sw4C1m9xNGduymlIPeQ3-87" value="&lt;font style=&quot;font-size: 24px;&quot;&gt;Kiểm tra IP Wifi&lt;/font&gt;" style="rounded=1;whiteSpace=wrap;html=1;absoluteArcSize=1;arcSize=14;strokeWidth=2;" parent="sw4C1m9xNGduymlIPeQ3-4" vertex="1">
          <mxGeometry x="517" y="810" width="180" height="80" as="geometry" />
        </mxCell>
        <mxCell id="sw4C1m9xNGduymlIPeQ3-95" style="edgeStyle=orthogonalEdgeStyle;rounded=0;orthogonalLoop=1;jettySize=auto;html=1;exitX=0.5;exitY=0;exitDx=0;exitDy=0;exitPerimeter=0;" parent="sw4C1m9xNGduymlIPeQ3-4" source="sw4C1m9xNGduymlIPeQ3-90" target="sw4C1m9xNGduymlIPeQ3-97" edge="1">
          <mxGeometry relative="1" as="geometry">
            <mxPoint x="667.0000000000005" y="504" as="targetPoint" />
          </mxGeometry>
        </mxCell>
        <mxCell id="sw4C1m9xNGduymlIPeQ3-96" value="No" style="edgeLabel;html=1;align=center;verticalAlign=middle;resizable=0;points=[];" parent="sw4C1m9xNGduymlIPeQ3-95" vertex="1" connectable="0">
          <mxGeometry x="0.0079" y="4" relative="1" as="geometry">
            <mxPoint as="offset" />
          </mxGeometry>
        </mxCell>
        <mxCell id="sw4C1m9xNGduymlIPeQ3-90" value="Số lần quay lại &amp;lt;3" style="points=[[0.25,0.25,0],[0.5,0,0],[0.75,0.25,0],[1,0.5,0],[0.75,0.75,0],[0.5,1,0],[0.25,0.75,0],[0,0.5,0]];shape=mxgraph.bpmn.gateway2;html=1;verticalLabelPosition=bottom;labelBackgroundColor=#ffffff;verticalAlign=top;align=center;perimeter=rhombusPerimeter;outlineConnect=0;outline=none;symbol=none;fillColor=#a20025;fontColor=#ffffff;strokeColor=#6F0000;" parent="sw4C1m9xNGduymlIPeQ3-4" vertex="1">
          <mxGeometry x="267" y="580" width="50" height="50" as="geometry" />
        </mxCell>
        <mxCell id="sw4C1m9xNGduymlIPeQ3-92" style="edgeStyle=orthogonalEdgeStyle;rounded=0;orthogonalLoop=1;jettySize=auto;html=1;entryX=1;entryY=0.5;entryDx=0;entryDy=0;entryPerimeter=0;" parent="sw4C1m9xNGduymlIPeQ3-4" source="sw4C1m9xNGduymlIPeQ3-82" target="sw4C1m9xNGduymlIPeQ3-90" edge="1">
          <mxGeometry relative="1" as="geometry" />
        </mxCell>
        <mxCell id="sw4C1m9xNGduymlIPeQ3-154" style="edgeStyle=orthogonalEdgeStyle;rounded=0;orthogonalLoop=1;jettySize=auto;html=1;exitX=0.5;exitY=0;exitDx=0;exitDy=0;entryX=0.5;entryY=0;entryDx=0;entryDy=0;" parent="sw4C1m9xNGduymlIPeQ3-4" source="sw4C1m9xNGduymlIPeQ3-97" target="sw4C1m9xNGduymlIPeQ3-32" edge="1">
          <mxGeometry relative="1" as="geometry" />
        </mxCell>
        <mxCell id="sw4C1m9xNGduymlIPeQ3-97" value="&lt;font style=&quot;font-size: 18px;&quot;&gt;Hiển thị thông báo&lt;/font&gt;&lt;div&gt;&lt;font size=&quot;3&quot;&gt;&quot;Lỗi&quot;&lt;/font&gt;&lt;/div&gt;" style="rounded=1;whiteSpace=wrap;html=1;absoluteArcSize=1;arcSize=14;strokeWidth=2;" parent="sw4C1m9xNGduymlIPeQ3-4" vertex="1">
          <mxGeometry x="590" y="430" width="220" height="60" as="geometry" />
        </mxCell>
        <mxCell id="sw4C1m9xNGduymlIPeQ3-109" style="edgeStyle=orthogonalEdgeStyle;rounded=0;orthogonalLoop=1;jettySize=auto;html=1;exitX=1;exitY=0.5;exitDx=0;exitDy=0;exitPerimeter=0;entryX=0;entryY=0.5;entryDx=0;entryDy=0;" parent="sw4C1m9xNGduymlIPeQ3-4" source="sw4C1m9xNGduymlIPeQ3-99" target="sw4C1m9xNGduymlIPeQ3-114" edge="1">
          <mxGeometry relative="1" as="geometry">
            <mxPoint x="797" y="1020" as="targetPoint" />
          </mxGeometry>
        </mxCell>
        <mxCell id="sw4C1m9xNGduymlIPeQ3-113" value="Yes" style="edgeLabel;html=1;align=center;verticalAlign=middle;resizable=0;points=[];" parent="sw4C1m9xNGduymlIPeQ3-109" vertex="1" connectable="0">
          <mxGeometry x="0.0329" y="-7" relative="1" as="geometry">
            <mxPoint x="-6" y="-5" as="offset" />
          </mxGeometry>
        </mxCell>
        <mxCell id="sw4C1m9xNGduymlIPeQ3-99" value="&lt;font style=&quot;font-size: 18px;&quot;&gt;Địa chỉ IP trùng khớp&lt;/font&gt;" style="points=[[0.25,0.25,0],[0.5,0,0],[0.75,0.25,0],[1,0.5,0],[0.75,0.75,0],[0.5,1,0],[0.25,0.75,0],[0,0.5,0]];shape=mxgraph.bpmn.gateway2;html=1;verticalLabelPosition=bottom;labelBackgroundColor=#ffffff;verticalAlign=top;align=center;perimeter=rhombusPerimeter;outlineConnect=0;outline=none;symbol=none;fillColor=#a20025;fontColor=#ffffff;strokeColor=#6F0000;" parent="sw4C1m9xNGduymlIPeQ3-4" vertex="1">
          <mxGeometry x="581" y="990" width="52" height="50" as="geometry" />
        </mxCell>
        <mxCell id="sw4C1m9xNGduymlIPeQ3-110" style="edgeStyle=orthogonalEdgeStyle;rounded=0;orthogonalLoop=1;jettySize=auto;html=1;exitX=0.5;exitY=1;exitDx=0;exitDy=0;exitPerimeter=0;entryX=0.25;entryY=0;entryDx=0;entryDy=0;" parent="sw4C1m9xNGduymlIPeQ3-4" source="sw4C1m9xNGduymlIPeQ3-103" target="sw4C1m9xNGduymlIPeQ3-112" edge="1">
          <mxGeometry relative="1" as="geometry">
            <mxPoint x="55.69230769230762" y="1420" as="targetPoint" />
          </mxGeometry>
        </mxCell>
        <mxCell id="sw4C1m9xNGduymlIPeQ3-111" value="No" style="edgeLabel;html=1;align=center;verticalAlign=middle;resizable=0;points=[];" parent="sw4C1m9xNGduymlIPeQ3-110" vertex="1" connectable="0">
          <mxGeometry x="-0.0042" y="-3" relative="1" as="geometry">
            <mxPoint y="3" as="offset" />
          </mxGeometry>
        </mxCell>
        <mxCell id="sw4C1m9xNGduymlIPeQ3-103" value="&lt;font style=&quot;font-size: 14px;&quot;&gt;Số lần quay lại &amp;lt;3&lt;/font&gt;" style="points=[[0.25,0.25,0],[0.5,0,0],[0.75,0.25,0],[1,0.5,0],[0.75,0.75,0],[0.5,1,0],[0.25,0.75,0],[0,0.5,0]];shape=mxgraph.bpmn.gateway2;html=1;verticalLabelPosition=bottom;labelBackgroundColor=#ffffff;verticalAlign=top;align=center;perimeter=rhombusPerimeter;outlineConnect=0;outline=none;symbol=none;fillColor=#a20025;fontColor=#ffffff;strokeColor=#6F0000;" parent="sw4C1m9xNGduymlIPeQ3-4" vertex="1">
          <mxGeometry x="80" y="1160" width="50" height="50" as="geometry" />
        </mxCell>
        <mxCell id="sw4C1m9xNGduymlIPeQ3-156" style="edgeStyle=orthogonalEdgeStyle;rounded=0;orthogonalLoop=1;jettySize=auto;html=1;exitX=0.5;exitY=1;exitDx=0;exitDy=0;entryX=1;entryY=1;entryDx=0;entryDy=0;" parent="sw4C1m9xNGduymlIPeQ3-4" source="sw4C1m9xNGduymlIPeQ3-112" edge="1" target="sw4C1m9xNGduymlIPeQ3-32">
          <mxGeometry relative="1" as="geometry">
            <mxPoint x="165" y="1667.18" as="sourcePoint" />
            <mxPoint x="1933.8198051533936" y="1653.9998051533942" as="targetPoint" />
            <Array as="points">
              <mxPoint x="90" y="1600" />
              <mxPoint x="90" y="1777" />
              <mxPoint x="1934" y="1777" />
            </Array>
          </mxGeometry>
        </mxCell>
        <mxCell id="sw4C1m9xNGduymlIPeQ3-112" value="&lt;font style=&quot;font-size: 18px;&quot;&gt;Hiển thị thông báo&lt;/font&gt;&lt;div&gt;&lt;font size=&quot;3&quot; style=&quot;&quot;&gt;&quot;Lỗi&quot;&lt;/font&gt;&lt;/div&gt;" style="rounded=1;whiteSpace=wrap;html=1;absoluteArcSize=1;arcSize=14;strokeWidth=2;" parent="sw4C1m9xNGduymlIPeQ3-4" vertex="1">
          <mxGeometry x="40" y="1530" width="250" height="70" as="geometry" />
        </mxCell>
        <mxCell id="sw4C1m9xNGduymlIPeQ3-114" value="&lt;font style=&quot;font-size: 24px;&quot;&gt;Lưu trữ chấm công&lt;/font&gt;" style="rounded=1;whiteSpace=wrap;html=1;absoluteArcSize=1;arcSize=14;strokeWidth=2;" parent="sw4C1m9xNGduymlIPeQ3-4" vertex="1">
          <mxGeometry x="800" y="975" width="207" height="80" as="geometry" />
        </mxCell>
        <mxCell id="sw4C1m9xNGduymlIPeQ3-117" style="edgeStyle=orthogonalEdgeStyle;rounded=0;orthogonalLoop=1;jettySize=auto;html=1;exitX=1;exitY=0.5;exitDx=0;exitDy=0;exitPerimeter=0;" parent="sw4C1m9xNGduymlIPeQ3-4" source="sw4C1m9xNGduymlIPeQ3-115" target="sw4C1m9xNGduymlIPeQ3-132" edge="1">
          <mxGeometry relative="1" as="geometry">
            <mxPoint x="1307" y="1014.6923076923076" as="targetPoint" />
          </mxGeometry>
        </mxCell>
        <mxCell id="sw4C1m9xNGduymlIPeQ3-157" value="Yes" style="edgeLabel;html=1;align=center;verticalAlign=middle;resizable=0;points=[];" parent="sw4C1m9xNGduymlIPeQ3-117" vertex="1" connectable="0">
          <mxGeometry x="-0.039" y="1" relative="1" as="geometry">
            <mxPoint as="offset" />
          </mxGeometry>
        </mxCell>
        <mxCell id="sw4C1m9xNGduymlIPeQ3-115" value="&lt;font style=&quot;font-size: 18px;&quot;&gt;Lưu thành công&lt;/font&gt;" style="points=[[0.25,0.25,0],[0.5,0,0],[0.75,0.25,0],[1,0.5,0],[0.75,0.75,0],[0.5,1,0],[0.25,0.75,0],[0,0.5,0]];shape=mxgraph.bpmn.gateway2;html=1;verticalLabelPosition=bottom;labelBackgroundColor=#ffffff;verticalAlign=top;align=center;perimeter=rhombusPerimeter;outlineConnect=0;outline=none;symbol=none;fillColor=#a20025;fontColor=#ffffff;strokeColor=#6F0000;" parent="sw4C1m9xNGduymlIPeQ3-4" vertex="1">
          <mxGeometry x="1117" y="990" width="50" height="50" as="geometry" />
        </mxCell>
        <mxCell id="sw4C1m9xNGduymlIPeQ3-116" style="edgeStyle=orthogonalEdgeStyle;rounded=0;orthogonalLoop=1;jettySize=auto;html=1;exitX=1;exitY=0.5;exitDx=0;exitDy=0;entryX=0;entryY=0.5;entryDx=0;entryDy=0;entryPerimeter=0;" parent="sw4C1m9xNGduymlIPeQ3-4" source="sw4C1m9xNGduymlIPeQ3-114" target="sw4C1m9xNGduymlIPeQ3-115" edge="1">
          <mxGeometry relative="1" as="geometry" />
        </mxCell>
        <mxCell id="sw4C1m9xNGduymlIPeQ3-130" style="edgeStyle=orthogonalEdgeStyle;rounded=0;orthogonalLoop=1;jettySize=auto;html=1;exitX=1;exitY=0.5;exitDx=0;exitDy=0;exitPerimeter=0;entryX=0;entryY=0.25;entryDx=0;entryDy=0;" parent="sw4C1m9xNGduymlIPeQ3-4" source="sw4C1m9xNGduymlIPeQ3-121" target="sw4C1m9xNGduymlIPeQ3-129" edge="1">
          <mxGeometry relative="1" as="geometry" />
        </mxCell>
        <mxCell id="sw4C1m9xNGduymlIPeQ3-131" value="No" style="edgeLabel;html=1;align=center;verticalAlign=middle;resizable=0;points=[];" parent="sw4C1m9xNGduymlIPeQ3-130" vertex="1" connectable="0">
          <mxGeometry x="0.5048" y="-1" relative="1" as="geometry">
            <mxPoint as="offset" />
          </mxGeometry>
        </mxCell>
        <mxCell id="sw4C1m9xNGduymlIPeQ3-121" value="Quay lại bước 2 dưới 3 lần" style="points=[[0.25,0.25,0],[0.5,0,0],[0.75,0.25,0],[1,0.5,0],[0.75,0.75,0],[0.5,1,0],[0.25,0.75,0],[0,0.5,0]];shape=mxgraph.bpmn.gateway2;html=1;verticalLabelPosition=bottom;labelBackgroundColor=#ffffff;verticalAlign=top;align=center;perimeter=rhombusPerimeter;outlineConnect=0;outline=none;symbol=none;fillColor=#a20025;fontColor=#ffffff;strokeColor=#6F0000;" parent="sw4C1m9xNGduymlIPeQ3-4" vertex="1">
          <mxGeometry x="1117" y="1400" width="50" height="50" as="geometry" />
        </mxCell>
        <mxCell id="sw4C1m9xNGduymlIPeQ3-122" style="edgeStyle=orthogonalEdgeStyle;rounded=0;orthogonalLoop=1;jettySize=auto;html=1;exitX=0.5;exitY=1;exitDx=0;exitDy=0;exitPerimeter=0;" parent="sw4C1m9xNGduymlIPeQ3-4" source="sw4C1m9xNGduymlIPeQ3-115" target="sw4C1m9xNGduymlIPeQ3-124" edge="1">
          <mxGeometry relative="1" as="geometry">
            <mxPoint x="1152" y="1000" as="sourcePoint" />
            <mxPoint x="1187" y="1370" as="targetPoint" />
          </mxGeometry>
        </mxCell>
        <mxCell id="sw4C1m9xNGduymlIPeQ3-123" value="No" style="edgeLabel;html=1;align=center;verticalAlign=middle;resizable=0;points=[];" parent="sw4C1m9xNGduymlIPeQ3-122" vertex="1" connectable="0">
          <mxGeometry x="0.0332" y="-3" relative="1" as="geometry">
            <mxPoint y="1" as="offset" />
          </mxGeometry>
        </mxCell>
        <mxCell id="sw4C1m9xNGduymlIPeQ3-126" style="edgeStyle=orthogonalEdgeStyle;rounded=0;orthogonalLoop=1;jettySize=auto;html=1;exitX=0.5;exitY=1;exitDx=0;exitDy=0;" parent="sw4C1m9xNGduymlIPeQ3-4" source="sw4C1m9xNGduymlIPeQ3-124" target="sw4C1m9xNGduymlIPeQ3-121" edge="1">
          <mxGeometry relative="1" as="geometry" />
        </mxCell>
        <mxCell id="sw4C1m9xNGduymlIPeQ3-124" value="&lt;font style=&quot;font-size: 24px;&quot;&gt;Hiển thị thông báo&lt;/font&gt;&lt;div&gt;&lt;font style=&quot;font-size: 24px;&quot;&gt;&quot;Không thành công&quot;&lt;/font&gt;&lt;/div&gt;" style="rounded=1;whiteSpace=wrap;html=1;absoluteArcSize=1;arcSize=14;strokeWidth=2;" parent="sw4C1m9xNGduymlIPeQ3-4" vertex="1">
          <mxGeometry x="1072" y="1240" width="248" height="70" as="geometry" />
        </mxCell>
        <mxCell id="sw4C1m9xNGduymlIPeQ3-134" style="edgeStyle=orthogonalEdgeStyle;rounded=0;orthogonalLoop=1;jettySize=auto;html=1;exitX=0.5;exitY=1;exitDx=0;exitDy=0;entryX=0;entryY=1;entryDx=0;entryDy=0;" parent="sw4C1m9xNGduymlIPeQ3-4" source="sw4C1m9xNGduymlIPeQ3-129" target="sw4C1m9xNGduymlIPeQ3-32" edge="1">
          <mxGeometry relative="1" as="geometry" />
        </mxCell>
        <mxCell id="sw4C1m9xNGduymlIPeQ3-129" value="Hiển thị thông báo&lt;div&gt;&quot;Lỗi&quot;&lt;/div&gt;" style="rounded=1;whiteSpace=wrap;html=1;absoluteArcSize=1;arcSize=14;strokeWidth=2;" parent="sw4C1m9xNGduymlIPeQ3-4" vertex="1">
          <mxGeometry x="1327" y="1470" width="140" height="70" as="geometry" />
        </mxCell>
        <mxCell id="sw4C1m9xNGduymlIPeQ3-136" style="edgeStyle=orthogonalEdgeStyle;rounded=0;orthogonalLoop=1;jettySize=auto;html=1;exitX=0.5;exitY=1;exitDx=0;exitDy=0;entryX=0;entryY=0;entryDx=0;entryDy=0;" parent="sw4C1m9xNGduymlIPeQ3-4" source="sw4C1m9xNGduymlIPeQ3-132" target="sw4C1m9xNGduymlIPeQ3-32" edge="1">
          <mxGeometry relative="1" as="geometry">
            <mxPoint x="1847" y="1540" as="targetPoint" />
            <Array as="points">
              <mxPoint x="1377" y="1050" />
              <mxPoint x="1377" y="1130" />
              <mxPoint x="1847" y="1130" />
              <mxPoint x="1847" y="1523" />
            </Array>
          </mxGeometry>
        </mxCell>
        <mxCell id="sw4C1m9xNGduymlIPeQ3-132" value="&lt;font style=&quot;font-size: 24px;&quot;&gt;Hiển thị công đã chấm&lt;/font&gt;" style="rounded=1;whiteSpace=wrap;html=1;absoluteArcSize=1;arcSize=14;strokeWidth=2;" parent="sw4C1m9xNGduymlIPeQ3-4" vertex="1">
          <mxGeometry x="1307" y="980" width="173" height="70" as="geometry" />
        </mxCell>
        <mxCell id="sw4C1m9xNGduymlIPeQ3-140" style="rounded=0;orthogonalLoop=1;jettySize=auto;html=1;entryX=0.5;entryY=0;entryDx=0;entryDy=0;entryPerimeter=0;exitX=0.409;exitY=1;exitDx=0;exitDy=0;exitPerimeter=0;" parent="sw4C1m9xNGduymlIPeQ3-4" source="sw4C1m9xNGduymlIPeQ3-12" target="sw4C1m9xNGduymlIPeQ3-25" edge="1">
          <mxGeometry relative="1" as="geometry">
            <mxPoint x="550" y="110" as="sourcePoint" />
          </mxGeometry>
        </mxCell>
        <mxCell id="sw4C1m9xNGduymlIPeQ3-141" style="edgeStyle=orthogonalEdgeStyle;rounded=0;orthogonalLoop=1;jettySize=auto;html=1;" parent="sw4C1m9xNGduymlIPeQ3-4" source="sw4C1m9xNGduymlIPeQ3-80" target="sw4C1m9xNGduymlIPeQ3-82" edge="1">
          <mxGeometry relative="1" as="geometry">
            <mxPoint x="87" y="760" as="sourcePoint" />
            <mxPoint x="407" y="600" as="targetPoint" />
            <Array as="points">
              <mxPoint x="589" y="740" />
            </Array>
          </mxGeometry>
        </mxCell>
        <mxCell id="sw4C1m9xNGduymlIPeQ3-142" value="No" style="edgeLabel;html=1;align=center;verticalAlign=middle;resizable=0;points=[];" parent="sw4C1m9xNGduymlIPeQ3-141" vertex="1" connectable="0">
          <mxGeometry x="-0.3942" y="-1" relative="1" as="geometry">
            <mxPoint as="offset" />
          </mxGeometry>
        </mxCell>
        <mxCell id="sw4C1m9xNGduymlIPeQ3-62" value="" style="points=[[0.25,0.25,0],[0.5,0,0],[0.75,0.25,0],[1,0.5,0],[0.75,0.75,0],[0.5,1,0],[0.25,0.75,0],[0,0.5,0]];shape=mxgraph.bpmn.gateway2;html=1;verticalLabelPosition=bottom;labelBackgroundColor=#ffffff;verticalAlign=top;align=center;perimeter=rhombusPerimeter;outlineConnect=0;outline=none;symbol=none;fillColor=#a20025;fontColor=#ffffff;strokeColor=#6F0000;" parent="sw4C1m9xNGduymlIPeQ3-4" vertex="1">
          <mxGeometry x="60" y="885" width="50" height="50" as="geometry" />
        </mxCell>
        <mxCell id="sw4C1m9xNGduymlIPeQ3-76" style="edgeStyle=orthogonalEdgeStyle;rounded=0;orthogonalLoop=1;jettySize=auto;html=1;exitX=1;exitY=0.5;exitDx=0;exitDy=0;exitPerimeter=0;entryX=0;entryY=0.5;entryDx=0;entryDy=0;" parent="sw4C1m9xNGduymlIPeQ3-4" source="sw4C1m9xNGduymlIPeQ3-62" target="sw4C1m9xNGduymlIPeQ3-67" edge="1">
          <mxGeometry relative="1" as="geometry" />
        </mxCell>
        <mxCell id="sw4C1m9xNGduymlIPeQ3-77" value="Trùng khớp" style="edgeLabel;html=1;align=center;verticalAlign=middle;resizable=0;points=[];" parent="sw4C1m9xNGduymlIPeQ3-76" vertex="1" connectable="0">
          <mxGeometry x="-0.0942" relative="1" as="geometry">
            <mxPoint x="-1" as="offset" />
          </mxGeometry>
        </mxCell>
        <mxCell id="sw4C1m9xNGduymlIPeQ3-78" style="edgeStyle=orthogonalEdgeStyle;rounded=0;orthogonalLoop=1;jettySize=auto;html=1;exitX=0.5;exitY=1;exitDx=0;exitDy=0;exitPerimeter=0;entryX=0;entryY=0.75;entryDx=0;entryDy=0;" parent="sw4C1m9xNGduymlIPeQ3-4" source="sw4C1m9xNGduymlIPeQ3-62" target="sw4C1m9xNGduymlIPeQ3-73" edge="1">
          <mxGeometry relative="1" as="geometry" />
        </mxCell>
        <mxCell id="sw4C1m9xNGduymlIPeQ3-79" value="Không trùng khớp" style="edgeLabel;html=1;align=center;verticalAlign=middle;resizable=0;points=[];" parent="sw4C1m9xNGduymlIPeQ3-78" vertex="1" connectable="0">
          <mxGeometry x="0.392" y="-4" relative="1" as="geometry">
            <mxPoint x="-1" as="offset" />
          </mxGeometry>
        </mxCell>
        <mxCell id="sw4C1m9xNGduymlIPeQ3-148" value="&lt;font style=&quot;font-size: 24px;&quot;&gt;Kiểm tra Face ID&lt;/font&gt;" style="rounded=1;whiteSpace=wrap;html=1;absoluteArcSize=1;arcSize=14;strokeWidth=2;" parent="sw4C1m9xNGduymlIPeQ3-4" vertex="1">
          <mxGeometry x="30" y="740" width="190" height="90" as="geometry" />
        </mxCell>
        <mxCell id="sw4C1m9xNGduymlIPeQ3-149" style="edgeStyle=orthogonalEdgeStyle;rounded=0;orthogonalLoop=1;jettySize=auto;html=1;entryX=0.5;entryY=0;entryDx=0;entryDy=0;entryPerimeter=0;" parent="sw4C1m9xNGduymlIPeQ3-4" source="sw4C1m9xNGduymlIPeQ3-148" target="sw4C1m9xNGduymlIPeQ3-62" edge="1">
          <mxGeometry relative="1" as="geometry" />
        </mxCell>
        <mxCell id="sw4C1m9xNGduymlIPeQ3-152" style="edgeStyle=orthogonalEdgeStyle;rounded=0;orthogonalLoop=1;jettySize=auto;html=1;exitX=1;exitY=0.5;exitDx=0;exitDy=0;entryX=0.665;entryY=0.016;entryDx=0;entryDy=0;entryPerimeter=0;" parent="sw4C1m9xNGduymlIPeQ3-4" source="sw4C1m9xNGduymlIPeQ3-48" target="sw4C1m9xNGduymlIPeQ3-32" edge="1">
          <mxGeometry relative="1" as="geometry">
            <Array as="points">
              <mxPoint x="2020" y="350" />
              <mxPoint x="2020" y="1511" />
            </Array>
          </mxGeometry>
        </mxCell>
        <mxCell id="sw4C1m9xNGduymlIPeQ3-181" style="edgeStyle=orthogonalEdgeStyle;rounded=0;orthogonalLoop=1;jettySize=auto;html=1;exitX=0.5;exitY=1;exitDx=0;exitDy=0;exitPerimeter=0;entryX=0.75;entryY=0.75;entryDx=0;entryDy=0;entryPerimeter=0;" parent="sw4C1m9xNGduymlIPeQ3-4" source="sw4C1m9xNGduymlIPeQ3-99" target="sw4C1m9xNGduymlIPeQ3-103" edge="1">
          <mxGeometry relative="1" as="geometry">
            <Array as="points">
              <mxPoint x="607" y="1280" />
              <mxPoint x="117" y="1280" />
            </Array>
          </mxGeometry>
        </mxCell>
        <mxCell id="sw4C1m9xNGduymlIPeQ3-182" value="&lt;font style=&quot;font-size: 18px;&quot;&gt;No&lt;/font&gt;" style="edgeLabel;html=1;align=center;verticalAlign=middle;resizable=0;points=[];" parent="sw4C1m9xNGduymlIPeQ3-181" vertex="1" connectable="0">
          <mxGeometry x="-0.601" y="6" relative="1" as="geometry">
            <mxPoint y="-1" as="offset" />
          </mxGeometry>
        </mxCell>
        <mxCell id="sw4C1m9xNGduymlIPeQ3-13" style="edgeStyle=orthogonalEdgeStyle;rounded=0;orthogonalLoop=1;jettySize=auto;html=1;exitX=0.5;exitY=0;exitDx=0;exitDy=0;entryX=0;entryY=0.25;entryDx=0;entryDy=0;" parent="1" source="sw4C1m9xNGduymlIPeQ3-10" target="sw4C1m9xNGduymlIPeQ3-12" edge="1">
          <mxGeometry relative="1" as="geometry" />
        </mxCell>
        <mxCell id="sw4C1m9xNGduymlIPeQ3-43" style="rounded=0;orthogonalLoop=1;jettySize=auto;html=1;exitX=0;exitY=0.5;exitDx=0;exitDy=0;exitPerimeter=0;" parent="1" source="sw4C1m9xNGduymlIPeQ3-15" edge="1">
          <mxGeometry relative="1" as="geometry">
            <mxPoint x="-400" y="265" as="targetPoint" />
          </mxGeometry>
        </mxCell>
        <mxCell id="sw4C1m9xNGduymlIPeQ3-44" value="No" style="edgeLabel;html=1;align=center;verticalAlign=middle;resizable=0;points=[];" parent="sw4C1m9xNGduymlIPeQ3-43" vertex="1" connectable="0">
          <mxGeometry x="0.4889" y="3" relative="1" as="geometry">
            <mxPoint as="offset" />
          </mxGeometry>
        </mxCell>
        <mxCell id="sw4C1m9xNGduymlIPeQ3-93" style="edgeStyle=orthogonalEdgeStyle;rounded=0;orthogonalLoop=1;jettySize=auto;html=1;entryX=0.387;entryY=1.032;entryDx=0;entryDy=0;entryPerimeter=0;" parent="1" source="sw4C1m9xNGduymlIPeQ3-90" target="sw4C1m9xNGduymlIPeQ3-53" edge="1">
          <mxGeometry relative="1" as="geometry" />
        </mxCell>
        <mxCell id="sw4C1m9xNGduymlIPeQ3-94" value="Yes" style="edgeLabel;html=1;align=center;verticalAlign=middle;resizable=0;points=[];" parent="sw4C1m9xNGduymlIPeQ3-93" vertex="1" connectable="0">
          <mxGeometry x="-0.2396" y="-4" relative="1" as="geometry">
            <mxPoint x="1" as="offset" />
          </mxGeometry>
        </mxCell>
        <mxCell id="sw4C1m9xNGduymlIPeQ3-106" style="edgeStyle=orthogonalEdgeStyle;rounded=0;orthogonalLoop=1;jettySize=auto;html=1;exitX=0;exitY=0.5;exitDx=0;exitDy=0;exitPerimeter=0;entryX=0.121;entryY=1.053;entryDx=0;entryDy=0;entryPerimeter=0;" parent="1" source="sw4C1m9xNGduymlIPeQ3-103" target="sw4C1m9xNGduymlIPeQ3-53" edge="1">
          <mxGeometry relative="1" as="geometry" />
        </mxCell>
        <mxCell id="sw4C1m9xNGduymlIPeQ3-107" value="Yes" style="edgeLabel;html=1;align=center;verticalAlign=middle;resizable=0;points=[];" parent="sw4C1m9xNGduymlIPeQ3-106" vertex="1" connectable="0">
          <mxGeometry x="-0.5542" y="5" relative="1" as="geometry">
            <mxPoint as="offset" />
          </mxGeometry>
        </mxCell>
        <mxCell id="sw4C1m9xNGduymlIPeQ3-153" style="edgeStyle=orthogonalEdgeStyle;rounded=0;orthogonalLoop=1;jettySize=auto;html=1;exitX=0.25;exitY=1;exitDx=0;exitDy=0;entryX=0;entryY=0.75;entryDx=0;entryDy=0;" parent="1" source="sw4C1m9xNGduymlIPeQ3-53" target="sw4C1m9xNGduymlIPeQ3-148" edge="1">
          <mxGeometry relative="1" as="geometry" />
        </mxCell>
        <mxCell id="sw4C1m9xNGduymlIPeQ3-162" style="edgeStyle=orthogonalEdgeStyle;rounded=0;orthogonalLoop=1;jettySize=auto;html=1;exitX=0;exitY=0.5;exitDx=0;exitDy=0;exitPerimeter=0;entryX=0;entryY=1;entryDx=0;entryDy=0;" parent="1" source="sw4C1m9xNGduymlIPeQ3-121" target="sw4C1m9xNGduymlIPeQ3-53" edge="1">
          <mxGeometry relative="1" as="geometry">
            <Array as="points">
              <mxPoint x="1127" y="1540" />
              <mxPoint x="-910" y="1540" />
            </Array>
          </mxGeometry>
        </mxCell>
        <mxCell id="sw4C1m9xNGduymlIPeQ3-163" value="Yes" style="edgeLabel;html=1;align=center;verticalAlign=middle;resizable=0;points=[];" parent="sw4C1m9xNGduymlIPeQ3-162" vertex="1" connectable="0">
          <mxGeometry x="-0.6293" y="6" relative="1" as="geometry">
            <mxPoint as="offset" />
          </mxGeometry>
        </mxCell>
        <mxCell id="sw4C1m9xNGduymlIPeQ3-164" style="edgeStyle=orthogonalEdgeStyle;rounded=0;orthogonalLoop=1;jettySize=auto;html=1;exitX=0.5;exitY=1;exitDx=0;exitDy=0;exitPerimeter=0;entryX=0.582;entryY=1.008;entryDx=0;entryDy=0;entryPerimeter=0;" parent="1" source="sw4C1m9xNGduymlIPeQ3-25" target="sw4C1m9xNGduymlIPeQ3-53" edge="1">
          <mxGeometry relative="1" as="geometry">
            <Array as="points">
              <mxPoint x="550" y="580" />
              <mxPoint x="-805" y="580" />
            </Array>
          </mxGeometry>
        </mxCell>
      </root>
    </mxGraphModel>
  </diagram>
  <diagram name="Copy of Page-1" id="L4kpAMeLOdq_roRorr5S">
    <mxGraphModel dx="5154" dy="2390" grid="1" gridSize="10" guides="1" tooltips="1" connect="1" arrows="1" fold="1" page="1" pageScale="1" pageWidth="1654" pageHeight="1169" math="0" shadow="0">
      <root>
        <mxCell id="bScUrp18sUeOc2WoEs5p-0" />
        <mxCell id="bScUrp18sUeOc2WoEs5p-1" parent="bScUrp18sUeOc2WoEs5p-0" />
        <mxCell id="bScUrp18sUeOc2WoEs5p-2" value="Nhân viên" style="swimlane;startSize=20;whiteSpace=wrap;html=1;" parent="bScUrp18sUeOc2WoEs5p-1" vertex="1">
          <mxGeometry x="-940" y="100" width="951" height="1900" as="geometry" />
        </mxCell>
        <mxCell id="bScUrp18sUeOc2WoEs5p-3" style="edgeStyle=orthogonalEdgeStyle;rounded=0;orthogonalLoop=1;jettySize=auto;html=1;exitX=1;exitY=0.5;exitDx=0;exitDy=0;entryX=0;entryY=0.5;entryDx=0;entryDy=0;" parent="bScUrp18sUeOc2WoEs5p-2" source="bScUrp18sUeOc2WoEs5p-4" target="bScUrp18sUeOc2WoEs5p-7" edge="1">
          <mxGeometry relative="1" as="geometry" />
        </mxCell>
        <mxCell id="bScUrp18sUeOc2WoEs5p-4" value="&lt;font style=&quot;font-size: 18px;&quot;&gt;Đăng nhập hệ thống&lt;/font&gt;" style="rounded=1;whiteSpace=wrap;html=1;absoluteArcSize=1;arcSize=14;strokeWidth=2;" parent="bScUrp18sUeOc2WoEs5p-2" vertex="1">
          <mxGeometry x="20" y="130" width="140" height="60" as="geometry" />
        </mxCell>
        <mxCell id="bScUrp18sUeOc2WoEs5p-5" style="edgeStyle=orthogonalEdgeStyle;rounded=0;orthogonalLoop=1;jettySize=auto;html=1;exitX=0.5;exitY=1;exitDx=0;exitDy=0;" parent="bScUrp18sUeOc2WoEs5p-2" source="bScUrp18sUeOc2WoEs5p-6" target="bScUrp18sUeOc2WoEs5p-4" edge="1">
          <mxGeometry relative="1" as="geometry" />
        </mxCell>
        <mxCell id="bScUrp18sUeOc2WoEs5p-6" value="" style="ellipse;html=1;shape=startState;fillColor=#000000;strokeColor=#ff0000;" parent="bScUrp18sUeOc2WoEs5p-2" vertex="1">
          <mxGeometry x="10" y="30" width="80" height="60" as="geometry" />
        </mxCell>
        <mxCell id="bScUrp18sUeOc2WoEs5p-7" value="&lt;font style=&quot;font-size: 18px;&quot;&gt;Nhập username,password&lt;/font&gt;" style="rounded=1;whiteSpace=wrap;html=1;absoluteArcSize=1;arcSize=14;strokeWidth=2;" parent="bScUrp18sUeOc2WoEs5p-2" vertex="1">
          <mxGeometry x="311" y="132" width="230" height="80" as="geometry" />
        </mxCell>
        <mxCell id="bScUrp18sUeOc2WoEs5p-8" value="&lt;font style=&quot;font-size: 24px;&quot;&gt;Qúet Face Id&lt;/font&gt;" style="rounded=1;whiteSpace=wrap;html=1;absoluteArcSize=1;arcSize=14;strokeWidth=2;" parent="bScUrp18sUeOc2WoEs5p-2" vertex="1">
          <mxGeometry x="30" y="250" width="180" height="80" as="geometry" />
        </mxCell>
        <mxCell id="bScUrp18sUeOc2WoEs5p-9" value="Hệ thống" style="swimlane;startSize=20;whiteSpace=wrap;html=1;" parent="bScUrp18sUeOc2WoEs5p-1" vertex="1">
          <mxGeometry x="10" y="100" width="2062" height="1900" as="geometry" />
        </mxCell>
        <mxCell id="bScUrp18sUeOc2WoEs5p-10" value="&lt;font style=&quot;font-size: 24px;&quot;&gt;Kiểm tra tài khoản&lt;/font&gt;" style="rounded=1;whiteSpace=wrap;html=1;absoluteArcSize=1;arcSize=14;strokeWidth=2;" parent="bScUrp18sUeOc2WoEs5p-9" vertex="1">
          <mxGeometry x="450" y="40" width="220" height="70" as="geometry" />
        </mxCell>
        <mxCell id="bScUrp18sUeOc2WoEs5p-11" value="&lt;font style=&quot;font-size: 18px;&quot;&gt;Hiển thị thông báo&lt;/font&gt;&lt;div&gt;&lt;font size=&quot;3&quot;&gt;&quot;Vui lòng nhập lại&quot;&lt;/font&gt;&lt;/div&gt;" style="rounded=1;whiteSpace=wrap;html=1;absoluteArcSize=1;arcSize=14;strokeWidth=2;" parent="bScUrp18sUeOc2WoEs5p-9" vertex="1">
          <mxGeometry x="140" y="140" width="190" height="70" as="geometry" />
        </mxCell>
        <mxCell id="bScUrp18sUeOc2WoEs5p-12" style="edgeStyle=orthogonalEdgeStyle;rounded=0;orthogonalLoop=1;jettySize=auto;html=1;exitX=0;exitY=0.5;exitDx=0;exitDy=0;exitPerimeter=0;entryX=1;entryY=0.5;entryDx=0;entryDy=0;" parent="bScUrp18sUeOc2WoEs5p-9" source="bScUrp18sUeOc2WoEs5p-14" target="bScUrp18sUeOc2WoEs5p-11" edge="1">
          <mxGeometry relative="1" as="geometry" />
        </mxCell>
        <mxCell id="bScUrp18sUeOc2WoEs5p-13" value="Không hợp lệ" style="edgeLabel;html=1;align=center;verticalAlign=middle;resizable=0;points=[];" parent="bScUrp18sUeOc2WoEs5p-12" vertex="1" connectable="0">
          <mxGeometry x="0.3345" y="-1" relative="1" as="geometry">
            <mxPoint as="offset" />
          </mxGeometry>
        </mxCell>
        <mxCell id="bScUrp18sUeOc2WoEs5p-14" value="" style="points=[[0.25,0.25,0],[0.5,0,0],[0.75,0.25,0],[1,0.5,0],[0.75,0.75,0],[0.5,1,0],[0.25,0.75,0],[0,0.5,0]];shape=mxgraph.bpmn.gateway2;html=1;verticalLabelPosition=bottom;labelBackgroundColor=#ffffff;verticalAlign=top;align=center;perimeter=rhombusPerimeter;outlineConnect=0;outline=none;symbol=none;" parent="bScUrp18sUeOc2WoEs5p-9" vertex="1">
          <mxGeometry x="505" y="170" width="70" height="60" as="geometry" />
        </mxCell>
        <mxCell id="bScUrp18sUeOc2WoEs5p-15" style="edgeStyle=orthogonalEdgeStyle;rounded=0;orthogonalLoop=1;jettySize=auto;html=1;exitX=0.5;exitY=1;exitDx=0;exitDy=0;exitPerimeter=0;entryX=0;entryY=0.75;entryDx=0;entryDy=0;" parent="bScUrp18sUeOc2WoEs5p-9" source="bScUrp18sUeOc2WoEs5p-17" target="bScUrp18sUeOc2WoEs5p-20" edge="1">
          <mxGeometry relative="1" as="geometry" />
        </mxCell>
        <mxCell id="bScUrp18sUeOc2WoEs5p-16" value="Yes" style="edgeLabel;html=1;align=center;verticalAlign=middle;resizable=0;points=[];" parent="bScUrp18sUeOc2WoEs5p-15" vertex="1" connectable="0">
          <mxGeometry x="0.528" y="-4" relative="1" as="geometry">
            <mxPoint as="offset" />
          </mxGeometry>
        </mxCell>
        <mxCell id="bScUrp18sUeOc2WoEs5p-17" value="&lt;font style=&quot;font-size: 14px;&quot;&gt;Số lần nhập&amp;lt;3&lt;/font&gt;" style="points=[[0.25,0.25,0],[0.5,0,0],[0.75,0.25,0],[1,0.5,0],[0.75,0.75,0],[0.5,1,0],[0.25,0.75,0],[0,0.5,0]];shape=mxgraph.bpmn.gateway2;html=1;verticalLabelPosition=bottom;labelBackgroundColor=#ffffff;verticalAlign=top;align=center;perimeter=rhombusPerimeter;outlineConnect=0;outline=none;symbol=none;" parent="bScUrp18sUeOc2WoEs5p-9" vertex="1">
          <mxGeometry x="20" y="140" width="50" height="50" as="geometry" />
        </mxCell>
        <mxCell id="bScUrp18sUeOc2WoEs5p-18" style="edgeStyle=orthogonalEdgeStyle;rounded=0;orthogonalLoop=1;jettySize=auto;html=1;exitX=0;exitY=0.5;exitDx=0;exitDy=0;entryX=1;entryY=0.5;entryDx=0;entryDy=0;entryPerimeter=0;" parent="bScUrp18sUeOc2WoEs5p-9" source="bScUrp18sUeOc2WoEs5p-11" target="bScUrp18sUeOc2WoEs5p-17" edge="1">
          <mxGeometry relative="1" as="geometry" />
        </mxCell>
        <mxCell id="bScUrp18sUeOc2WoEs5p-19" value="" style="ellipse;html=1;shape=endState;fillColor=#000000;strokeColor=#ff0000;" parent="bScUrp18sUeOc2WoEs5p-9" vertex="1">
          <mxGeometry x="1857" y="1510" width="90" height="90" as="geometry" />
        </mxCell>
        <mxCell id="bScUrp18sUeOc2WoEs5p-20" value="&lt;font style=&quot;font-size: 18px;&quot;&gt;Hiển thị thông báo&lt;/font&gt;&lt;div&gt;&lt;font size=&quot;3&quot;&gt;&quot;Lỗi&quot;&lt;/font&gt;&lt;/div&gt;" style="rounded=1;whiteSpace=wrap;html=1;absoluteArcSize=1;arcSize=14;strokeWidth=2;" parent="bScUrp18sUeOc2WoEs5p-9" vertex="1">
          <mxGeometry x="260" y="310" width="160" height="70" as="geometry" />
        </mxCell>
        <mxCell id="bScUrp18sUeOc2WoEs5p-21" value="&lt;font style=&quot;font-size: 24px;&quot;&gt;Kiểm tra GPS&lt;/font&gt;" style="rounded=1;whiteSpace=wrap;html=1;absoluteArcSize=1;arcSize=14;strokeWidth=2;" parent="bScUrp18sUeOc2WoEs5p-9" vertex="1">
          <mxGeometry x="240" y="1140" width="180" height="80" as="geometry" />
        </mxCell>
        <mxCell id="bScUrp18sUeOc2WoEs5p-24" style="edgeStyle=orthogonalEdgeStyle;rounded=0;orthogonalLoop=1;jettySize=auto;html=1;exitX=1;exitY=0.5;exitDx=0;exitDy=0;exitPerimeter=0;entryX=0.75;entryY=0;entryDx=0;entryDy=0;" parent="bScUrp18sUeOc2WoEs5p-9" source="bScUrp18sUeOc2WoEs5p-26" target="bScUrp18sUeOc2WoEs5p-30" edge="1">
          <mxGeometry relative="1" as="geometry">
            <mxPoint x="607.0000000000005" y="812" as="targetPoint" />
          </mxGeometry>
        </mxCell>
        <mxCell id="bScUrp18sUeOc2WoEs5p-25" value="Yes" style="edgeLabel;html=1;align=center;verticalAlign=middle;resizable=0;points=[];" parent="bScUrp18sUeOc2WoEs5p-24" vertex="1" connectable="0">
          <mxGeometry x="-0.3083" y="2" relative="1" as="geometry">
            <mxPoint as="offset" />
          </mxGeometry>
        </mxCell>
        <mxCell id="bScUrp18sUeOc2WoEs5p-26" value="&lt;font style=&quot;font-size: 14px;&quot;&gt;Ở trong phạm vi chấm công&lt;/font&gt;" style="points=[[0.25,0.25,0],[0.5,0,0],[0.75,0.25,0],[1,0.5,0],[0.75,0.75,0],[0.5,1,0],[0.25,0.75,0],[0,0.5,0]];shape=mxgraph.bpmn.gateway2;html=1;verticalLabelPosition=bottom;labelBackgroundColor=#ffffff;verticalAlign=top;align=center;perimeter=rhombusPerimeter;outlineConnect=0;outline=none;symbol=none;" parent="bScUrp18sUeOc2WoEs5p-9" vertex="1">
          <mxGeometry x="300" y="980" width="52" height="50" as="geometry" />
        </mxCell>
        <mxCell id="bScUrp18sUeOc2WoEs5p-27" style="edgeStyle=orthogonalEdgeStyle;rounded=0;orthogonalLoop=1;jettySize=auto;html=1;exitX=0.435;exitY=0.039;exitDx=0;exitDy=0;entryX=0.5;entryY=1;entryDx=0;entryDy=0;entryPerimeter=0;exitPerimeter=0;" parent="bScUrp18sUeOc2WoEs5p-9" source="bScUrp18sUeOc2WoEs5p-21" target="bScUrp18sUeOc2WoEs5p-26" edge="1">
          <mxGeometry relative="1" as="geometry">
            <mxPoint x="347" y="817" as="sourcePoint" />
          </mxGeometry>
        </mxCell>
        <mxCell id="bScUrp18sUeOc2WoEs5p-28" value="&lt;font style=&quot;font-size: 24px;&quot;&gt;Hiển thị thông báo&lt;/font&gt;&lt;div&gt;&lt;font style=&quot;font-size: 24px;&quot;&gt;&quot;Sai vị trí&quot;&lt;/font&gt;&lt;/div&gt;" style="rounded=1;whiteSpace=wrap;html=1;absoluteArcSize=1;arcSize=14;strokeWidth=2;" parent="bScUrp18sUeOc2WoEs5p-9" vertex="1">
          <mxGeometry x="272" y="680" width="233" height="60" as="geometry" />
        </mxCell>
        <mxCell id="bScUrp18sUeOc2WoEs5p-30" value="&lt;font style=&quot;font-size: 24px;&quot;&gt;Kiểm tra IP Wifi&lt;/font&gt;" style="rounded=1;whiteSpace=wrap;html=1;absoluteArcSize=1;arcSize=14;strokeWidth=2;" parent="bScUrp18sUeOc2WoEs5p-9" vertex="1">
          <mxGeometry x="500" y="1040" width="180" height="80" as="geometry" />
        </mxCell>
        <mxCell id="bScUrp18sUeOc2WoEs5p-31" style="edgeStyle=orthogonalEdgeStyle;rounded=0;orthogonalLoop=1;jettySize=auto;html=1;exitX=0.5;exitY=0;exitDx=0;exitDy=0;exitPerimeter=0;" parent="bScUrp18sUeOc2WoEs5p-9" source="bScUrp18sUeOc2WoEs5p-33" target="bScUrp18sUeOc2WoEs5p-36" edge="1">
          <mxGeometry relative="1" as="geometry">
            <mxPoint x="667.0000000000005" y="504" as="targetPoint" />
          </mxGeometry>
        </mxCell>
        <mxCell id="bScUrp18sUeOc2WoEs5p-32" value="No" style="edgeLabel;html=1;align=center;verticalAlign=middle;resizable=0;points=[];" parent="bScUrp18sUeOc2WoEs5p-31" vertex="1" connectable="0">
          <mxGeometry x="0.0079" y="4" relative="1" as="geometry">
            <mxPoint as="offset" />
          </mxGeometry>
        </mxCell>
        <mxCell id="bScUrp18sUeOc2WoEs5p-33" value="&lt;font style=&quot;font-size: 14px;&quot;&gt;Số lần quay lại &amp;lt;3&lt;/font&gt;" style="points=[[0.25,0.25,0],[0.5,0,0],[0.75,0.25,0],[1,0.5,0],[0.75,0.75,0],[0.5,1,0],[0.25,0.75,0],[0,0.5,0]];shape=mxgraph.bpmn.gateway2;html=1;verticalLabelPosition=bottom;labelBackgroundColor=#ffffff;verticalAlign=top;align=center;perimeter=rhombusPerimeter;outlineConnect=0;outline=none;symbol=none;" parent="bScUrp18sUeOc2WoEs5p-9" vertex="1">
          <mxGeometry x="267" y="580" width="50" height="50" as="geometry" />
        </mxCell>
        <mxCell id="bScUrp18sUeOc2WoEs5p-34" style="edgeStyle=orthogonalEdgeStyle;rounded=0;orthogonalLoop=1;jettySize=auto;html=1;entryX=1;entryY=0.5;entryDx=0;entryDy=0;entryPerimeter=0;" parent="bScUrp18sUeOc2WoEs5p-9" source="bScUrp18sUeOc2WoEs5p-28" target="bScUrp18sUeOc2WoEs5p-33" edge="1">
          <mxGeometry relative="1" as="geometry" />
        </mxCell>
        <mxCell id="bScUrp18sUeOc2WoEs5p-35" style="edgeStyle=orthogonalEdgeStyle;rounded=0;orthogonalLoop=1;jettySize=auto;html=1;exitX=0.5;exitY=0;exitDx=0;exitDy=0;entryX=0.5;entryY=0;entryDx=0;entryDy=0;" parent="bScUrp18sUeOc2WoEs5p-9" source="bScUrp18sUeOc2WoEs5p-36" target="bScUrp18sUeOc2WoEs5p-19" edge="1">
          <mxGeometry relative="1" as="geometry" />
        </mxCell>
        <mxCell id="bScUrp18sUeOc2WoEs5p-36" value="&lt;font style=&quot;font-size: 18px;&quot;&gt;Hiển thị thông báo&lt;/font&gt;&lt;div&gt;&lt;font size=&quot;3&quot;&gt;&quot;Lỗi&quot;&lt;/font&gt;&lt;/div&gt;" style="rounded=1;whiteSpace=wrap;html=1;absoluteArcSize=1;arcSize=14;strokeWidth=2;" parent="bScUrp18sUeOc2WoEs5p-9" vertex="1">
          <mxGeometry x="590" y="430" width="220" height="60" as="geometry" />
        </mxCell>
        <mxCell id="bScUrp18sUeOc2WoEs5p-37" style="edgeStyle=orthogonalEdgeStyle;rounded=0;orthogonalLoop=1;jettySize=auto;html=1;exitX=1;exitY=0.5;exitDx=0;exitDy=0;exitPerimeter=0;entryX=0;entryY=0.5;entryDx=0;entryDy=0;" parent="bScUrp18sUeOc2WoEs5p-9" source="bScUrp18sUeOc2WoEs5p-39" target="bScUrp18sUeOc2WoEs5p-45" edge="1">
          <mxGeometry relative="1" as="geometry">
            <mxPoint x="797" y="1020" as="targetPoint" />
          </mxGeometry>
        </mxCell>
        <mxCell id="bScUrp18sUeOc2WoEs5p-38" value="Yes" style="edgeLabel;html=1;align=center;verticalAlign=middle;resizable=0;points=[];" parent="bScUrp18sUeOc2WoEs5p-37" vertex="1" connectable="0">
          <mxGeometry x="0.0329" y="-7" relative="1" as="geometry">
            <mxPoint x="-6" y="-5" as="offset" />
          </mxGeometry>
        </mxCell>
        <mxCell id="bScUrp18sUeOc2WoEs5p-39" value="&lt;font style=&quot;font-size: 18px;&quot;&gt;Địa chỉ IP trùng khớp&lt;/font&gt;" style="points=[[0.25,0.25,0],[0.5,0,0],[0.75,0.25,0],[1,0.5,0],[0.75,0.75,0],[0.5,1,0],[0.25,0.75,0],[0,0.5,0]];shape=mxgraph.bpmn.gateway2;html=1;verticalLabelPosition=bottom;labelBackgroundColor=#ffffff;verticalAlign=top;align=center;perimeter=rhombusPerimeter;outlineConnect=0;outline=none;symbol=none;" parent="bScUrp18sUeOc2WoEs5p-9" vertex="1">
          <mxGeometry x="575" y="1180" width="52" height="50" as="geometry" />
        </mxCell>
        <mxCell id="bScUrp18sUeOc2WoEs5p-40" style="edgeStyle=orthogonalEdgeStyle;rounded=0;orthogonalLoop=1;jettySize=auto;html=1;exitX=0.5;exitY=1;exitDx=0;exitDy=0;exitPerimeter=0;entryX=0.25;entryY=0;entryDx=0;entryDy=0;" parent="bScUrp18sUeOc2WoEs5p-9" source="bScUrp18sUeOc2WoEs5p-42" target="bScUrp18sUeOc2WoEs5p-44" edge="1">
          <mxGeometry relative="1" as="geometry">
            <mxPoint x="55.69230769230762" y="1420" as="targetPoint" />
          </mxGeometry>
        </mxCell>
        <mxCell id="bScUrp18sUeOc2WoEs5p-41" value="No" style="edgeLabel;html=1;align=center;verticalAlign=middle;resizable=0;points=[];" parent="bScUrp18sUeOc2WoEs5p-40" vertex="1" connectable="0">
          <mxGeometry x="-0.0042" y="-3" relative="1" as="geometry">
            <mxPoint y="3" as="offset" />
          </mxGeometry>
        </mxCell>
        <mxCell id="bScUrp18sUeOc2WoEs5p-42" value="&lt;font style=&quot;font-size: 14px;&quot;&gt;Số lần quay lại &amp;lt;3&lt;/font&gt;" style="points=[[0.25,0.25,0],[0.5,0,0],[0.75,0.25,0],[1,0.5,0],[0.75,0.75,0],[0.5,1,0],[0.25,0.75,0],[0,0.5,0]];shape=mxgraph.bpmn.gateway2;html=1;verticalLabelPosition=bottom;labelBackgroundColor=#ffffff;verticalAlign=top;align=center;perimeter=rhombusPerimeter;outlineConnect=0;outline=none;symbol=none;" parent="bScUrp18sUeOc2WoEs5p-9" vertex="1">
          <mxGeometry x="40" y="1120" width="90" height="90" as="geometry" />
        </mxCell>
        <mxCell id="bScUrp18sUeOc2WoEs5p-43" style="edgeStyle=orthogonalEdgeStyle;rounded=0;orthogonalLoop=1;jettySize=auto;html=1;exitX=0.5;exitY=1;exitDx=0;exitDy=0;entryX=1;entryY=1;entryDx=0;entryDy=0;" parent="bScUrp18sUeOc2WoEs5p-9" source="bScUrp18sUeOc2WoEs5p-44" target="bScUrp18sUeOc2WoEs5p-19" edge="1">
          <mxGeometry relative="1" as="geometry">
            <Array as="points">
              <mxPoint x="90" y="1710" />
              <mxPoint x="1934" y="1710" />
            </Array>
          </mxGeometry>
        </mxCell>
        <mxCell id="bScUrp18sUeOc2WoEs5p-44" value="&lt;font style=&quot;font-size: 24px;&quot;&gt;Hiển thị thông báo&lt;/font&gt;&lt;div&gt;&lt;font style=&quot;font-size: 24px;&quot;&gt;&quot;Lỗi&quot;&lt;/font&gt;&lt;/div&gt;" style="rounded=1;whiteSpace=wrap;html=1;absoluteArcSize=1;arcSize=14;strokeWidth=2;" parent="bScUrp18sUeOc2WoEs5p-9" vertex="1">
          <mxGeometry x="30" y="1470" width="250" height="70" as="geometry" />
        </mxCell>
        <mxCell id="bScUrp18sUeOc2WoEs5p-45" value="&lt;font style=&quot;font-size: 24px;&quot;&gt;Lưu trữ chấm công&lt;/font&gt;" style="rounded=1;whiteSpace=wrap;html=1;absoluteArcSize=1;arcSize=14;strokeWidth=2;" parent="bScUrp18sUeOc2WoEs5p-9" vertex="1">
          <mxGeometry x="800" y="975" width="207" height="80" as="geometry" />
        </mxCell>
        <mxCell id="bScUrp18sUeOc2WoEs5p-46" style="edgeStyle=orthogonalEdgeStyle;rounded=0;orthogonalLoop=1;jettySize=auto;html=1;exitX=1;exitY=0.5;exitDx=0;exitDy=0;exitPerimeter=0;" parent="bScUrp18sUeOc2WoEs5p-9" source="bScUrp18sUeOc2WoEs5p-48" target="bScUrp18sUeOc2WoEs5p-60" edge="1">
          <mxGeometry relative="1" as="geometry">
            <mxPoint x="1307" y="1014.6923076923076" as="targetPoint" />
          </mxGeometry>
        </mxCell>
        <mxCell id="bScUrp18sUeOc2WoEs5p-47" value="Yes" style="edgeLabel;html=1;align=center;verticalAlign=middle;resizable=0;points=[];" parent="bScUrp18sUeOc2WoEs5p-46" vertex="1" connectable="0">
          <mxGeometry x="-0.039" y="1" relative="1" as="geometry">
            <mxPoint as="offset" />
          </mxGeometry>
        </mxCell>
        <mxCell id="bScUrp18sUeOc2WoEs5p-48" value="&lt;font style=&quot;font-size: 18px;&quot;&gt;Lưu thành công&lt;/font&gt;" style="points=[[0.25,0.25,0],[0.5,0,0],[0.75,0.25,0],[1,0.5,0],[0.75,0.75,0],[0.5,1,0],[0.25,0.75,0],[0,0.5,0]];shape=mxgraph.bpmn.gateway2;html=1;verticalLabelPosition=bottom;labelBackgroundColor=#ffffff;verticalAlign=top;align=center;perimeter=rhombusPerimeter;outlineConnect=0;outline=none;symbol=none;" parent="bScUrp18sUeOc2WoEs5p-9" vertex="1">
          <mxGeometry x="1117" y="990" width="50" height="50" as="geometry" />
        </mxCell>
        <mxCell id="bScUrp18sUeOc2WoEs5p-49" style="edgeStyle=orthogonalEdgeStyle;rounded=0;orthogonalLoop=1;jettySize=auto;html=1;exitX=1;exitY=0.5;exitDx=0;exitDy=0;entryX=0;entryY=0.5;entryDx=0;entryDy=0;entryPerimeter=0;" parent="bScUrp18sUeOc2WoEs5p-9" source="bScUrp18sUeOc2WoEs5p-45" target="bScUrp18sUeOc2WoEs5p-48" edge="1">
          <mxGeometry relative="1" as="geometry" />
        </mxCell>
        <mxCell id="bScUrp18sUeOc2WoEs5p-50" style="edgeStyle=orthogonalEdgeStyle;rounded=0;orthogonalLoop=1;jettySize=auto;html=1;exitX=1;exitY=0.5;exitDx=0;exitDy=0;exitPerimeter=0;entryX=0;entryY=0.25;entryDx=0;entryDy=0;" parent="bScUrp18sUeOc2WoEs5p-9" source="bScUrp18sUeOc2WoEs5p-52" target="bScUrp18sUeOc2WoEs5p-58" edge="1">
          <mxGeometry relative="1" as="geometry" />
        </mxCell>
        <mxCell id="bScUrp18sUeOc2WoEs5p-51" value="No" style="edgeLabel;html=1;align=center;verticalAlign=middle;resizable=0;points=[];" parent="bScUrp18sUeOc2WoEs5p-50" vertex="1" connectable="0">
          <mxGeometry x="0.5048" y="-1" relative="1" as="geometry">
            <mxPoint as="offset" />
          </mxGeometry>
        </mxCell>
        <mxCell id="bScUrp18sUeOc2WoEs5p-52" value="&lt;font style=&quot;font-size: 14px;&quot;&gt;Quay lại bước 2 dưới 3 lần&lt;/font&gt;" style="points=[[0.25,0.25,0],[0.5,0,0],[0.75,0.25,0],[1,0.5,0],[0.75,0.75,0],[0.5,1,0],[0.25,0.75,0],[0,0.5,0]];shape=mxgraph.bpmn.gateway2;html=1;verticalLabelPosition=bottom;labelBackgroundColor=#ffffff;verticalAlign=top;align=center;perimeter=rhombusPerimeter;outlineConnect=0;outline=none;symbol=none;" parent="bScUrp18sUeOc2WoEs5p-9" vertex="1">
          <mxGeometry x="1117" y="1400" width="50" height="50" as="geometry" />
        </mxCell>
        <mxCell id="bScUrp18sUeOc2WoEs5p-53" style="edgeStyle=orthogonalEdgeStyle;rounded=0;orthogonalLoop=1;jettySize=auto;html=1;exitX=0.5;exitY=1;exitDx=0;exitDy=0;exitPerimeter=0;" parent="bScUrp18sUeOc2WoEs5p-9" source="bScUrp18sUeOc2WoEs5p-48" target="bScUrp18sUeOc2WoEs5p-56" edge="1">
          <mxGeometry relative="1" as="geometry">
            <mxPoint x="1152" y="1000" as="sourcePoint" />
            <mxPoint x="1187" y="1370" as="targetPoint" />
          </mxGeometry>
        </mxCell>
        <mxCell id="bScUrp18sUeOc2WoEs5p-54" value="No" style="edgeLabel;html=1;align=center;verticalAlign=middle;resizable=0;points=[];" parent="bScUrp18sUeOc2WoEs5p-53" vertex="1" connectable="0">
          <mxGeometry x="0.0332" y="-3" relative="1" as="geometry">
            <mxPoint y="1" as="offset" />
          </mxGeometry>
        </mxCell>
        <mxCell id="bScUrp18sUeOc2WoEs5p-55" style="edgeStyle=orthogonalEdgeStyle;rounded=0;orthogonalLoop=1;jettySize=auto;html=1;exitX=0.5;exitY=1;exitDx=0;exitDy=0;" parent="bScUrp18sUeOc2WoEs5p-9" source="bScUrp18sUeOc2WoEs5p-56" target="bScUrp18sUeOc2WoEs5p-52" edge="1">
          <mxGeometry relative="1" as="geometry" />
        </mxCell>
        <mxCell id="bScUrp18sUeOc2WoEs5p-56" value="&lt;font style=&quot;font-size: 24px;&quot;&gt;Hiển thị thông báo&lt;/font&gt;&lt;div&gt;&lt;font style=&quot;font-size: 24px;&quot;&gt;&quot;Không thành công&quot;&lt;/font&gt;&lt;/div&gt;" style="rounded=1;whiteSpace=wrap;html=1;absoluteArcSize=1;arcSize=14;strokeWidth=2;" parent="bScUrp18sUeOc2WoEs5p-9" vertex="1">
          <mxGeometry x="1072" y="1240" width="248" height="70" as="geometry" />
        </mxCell>
        <mxCell id="bScUrp18sUeOc2WoEs5p-57" style="edgeStyle=orthogonalEdgeStyle;rounded=0;orthogonalLoop=1;jettySize=auto;html=1;exitX=0.5;exitY=1;exitDx=0;exitDy=0;entryX=0;entryY=1;entryDx=0;entryDy=0;" parent="bScUrp18sUeOc2WoEs5p-9" source="bScUrp18sUeOc2WoEs5p-58" target="bScUrp18sUeOc2WoEs5p-19" edge="1">
          <mxGeometry relative="1" as="geometry" />
        </mxCell>
        <mxCell id="bScUrp18sUeOc2WoEs5p-58" value="Hiển thị thông báo&lt;div&gt;&quot;Lỗi&quot;&lt;/div&gt;" style="rounded=1;whiteSpace=wrap;html=1;absoluteArcSize=1;arcSize=14;strokeWidth=2;" parent="bScUrp18sUeOc2WoEs5p-9" vertex="1">
          <mxGeometry x="1327" y="1470" width="140" height="70" as="geometry" />
        </mxCell>
        <mxCell id="bScUrp18sUeOc2WoEs5p-59" style="edgeStyle=orthogonalEdgeStyle;rounded=0;orthogonalLoop=1;jettySize=auto;html=1;exitX=0.5;exitY=1;exitDx=0;exitDy=0;entryX=0;entryY=0;entryDx=0;entryDy=0;" parent="bScUrp18sUeOc2WoEs5p-9" source="bScUrp18sUeOc2WoEs5p-60" target="bScUrp18sUeOc2WoEs5p-19" edge="1">
          <mxGeometry relative="1" as="geometry">
            <mxPoint x="1847" y="1540" as="targetPoint" />
            <Array as="points">
              <mxPoint x="1377" y="1050" />
              <mxPoint x="1377" y="1130" />
              <mxPoint x="1847" y="1130" />
              <mxPoint x="1847" y="1523" />
            </Array>
          </mxGeometry>
        </mxCell>
        <mxCell id="bScUrp18sUeOc2WoEs5p-60" value="&lt;font style=&quot;font-size: 24px;&quot;&gt;Hiển thị công đã chấm&lt;/font&gt;" style="rounded=1;whiteSpace=wrap;html=1;absoluteArcSize=1;arcSize=14;strokeWidth=2;" parent="bScUrp18sUeOc2WoEs5p-9" vertex="1">
          <mxGeometry x="1307" y="980" width="173" height="70" as="geometry" />
        </mxCell>
        <mxCell id="bScUrp18sUeOc2WoEs5p-61" style="edgeStyle=orthogonalEdgeStyle;rounded=0;orthogonalLoop=1;jettySize=auto;html=1;entryX=0.5;entryY=0;entryDx=0;entryDy=0;entryPerimeter=0;" parent="bScUrp18sUeOc2WoEs5p-9" source="bScUrp18sUeOc2WoEs5p-10" target="bScUrp18sUeOc2WoEs5p-14" edge="1">
          <mxGeometry relative="1" as="geometry" />
        </mxCell>
        <mxCell id="bScUrp18sUeOc2WoEs5p-62" style="edgeStyle=orthogonalEdgeStyle;rounded=0;orthogonalLoop=1;jettySize=auto;html=1;" parent="bScUrp18sUeOc2WoEs5p-9" source="bScUrp18sUeOc2WoEs5p-26" target="bScUrp18sUeOc2WoEs5p-28" edge="1">
          <mxGeometry relative="1" as="geometry">
            <mxPoint x="87" y="760" as="sourcePoint" />
            <mxPoint x="407" y="600" as="targetPoint" />
            <Array as="points">
              <mxPoint x="326" y="930" />
              <mxPoint x="589" y="930" />
              <mxPoint x="589" y="740" />
            </Array>
          </mxGeometry>
        </mxCell>
        <mxCell id="bScUrp18sUeOc2WoEs5p-63" value="No" style="edgeLabel;html=1;align=center;verticalAlign=middle;resizable=0;points=[];" parent="bScUrp18sUeOc2WoEs5p-62" vertex="1" connectable="0">
          <mxGeometry x="-0.3942" y="-1" relative="1" as="geometry">
            <mxPoint as="offset" />
          </mxGeometry>
        </mxCell>
        <mxCell id="mGsuLrHCB0cuBxFMvBK9-7" style="edgeStyle=orthogonalEdgeStyle;rounded=0;orthogonalLoop=1;jettySize=auto;html=1;exitX=1;exitY=0.5;exitDx=0;exitDy=0;exitPerimeter=0;" parent="bScUrp18sUeOc2WoEs5p-9" source="bScUrp18sUeOc2WoEs5p-64" target="mGsuLrHCB0cuBxFMvBK9-0" edge="1">
          <mxGeometry relative="1" as="geometry">
            <mxPoint x="310.00000000000045" y="840" as="targetPoint" />
          </mxGeometry>
        </mxCell>
        <mxCell id="bScUrp18sUeOc2WoEs5p-64" value="" style="points=[[0.25,0.25,0],[0.5,0,0],[0.75,0.25,0],[1,0.5,0],[0.75,0.75,0],[0.5,1,0],[0.25,0.75,0],[0,0.5,0]];shape=mxgraph.bpmn.gateway2;html=1;verticalLabelPosition=bottom;labelBackgroundColor=#ffffff;verticalAlign=top;align=center;perimeter=rhombusPerimeter;outlineConnect=0;outline=none;symbol=none;" parent="bScUrp18sUeOc2WoEs5p-9" vertex="1">
          <mxGeometry x="60" y="885" width="50" height="50" as="geometry" />
        </mxCell>
        <mxCell id="bScUrp18sUeOc2WoEs5p-65" style="edgeStyle=orthogonalEdgeStyle;rounded=0;orthogonalLoop=1;jettySize=auto;html=1;exitX=1;exitY=0.5;exitDx=0;exitDy=0;exitPerimeter=0;entryX=0;entryY=0.5;entryDx=0;entryDy=0;" parent="bScUrp18sUeOc2WoEs5p-9" source="bScUrp18sUeOc2WoEs5p-64" target="bScUrp18sUeOc2WoEs5p-21" edge="1">
          <mxGeometry relative="1" as="geometry" />
        </mxCell>
        <mxCell id="bScUrp18sUeOc2WoEs5p-66" value="Trùng khớp" style="edgeLabel;html=1;align=center;verticalAlign=middle;resizable=0;points=[];" parent="bScUrp18sUeOc2WoEs5p-65" vertex="1" connectable="0">
          <mxGeometry x="-0.0942" relative="1" as="geometry">
            <mxPoint x="-1" as="offset" />
          </mxGeometry>
        </mxCell>
        <mxCell id="bScUrp18sUeOc2WoEs5p-69" value="&lt;font style=&quot;font-size: 24px;&quot;&gt;Kiểm tra Face ID&lt;/font&gt;" style="rounded=1;whiteSpace=wrap;html=1;absoluteArcSize=1;arcSize=14;strokeWidth=2;" parent="bScUrp18sUeOc2WoEs5p-9" vertex="1">
          <mxGeometry x="30" y="740" width="190" height="90" as="geometry" />
        </mxCell>
        <mxCell id="bScUrp18sUeOc2WoEs5p-70" style="edgeStyle=orthogonalEdgeStyle;rounded=0;orthogonalLoop=1;jettySize=auto;html=1;entryX=0.5;entryY=0;entryDx=0;entryDy=0;entryPerimeter=0;" parent="bScUrp18sUeOc2WoEs5p-9" source="bScUrp18sUeOc2WoEs5p-69" target="bScUrp18sUeOc2WoEs5p-64" edge="1">
          <mxGeometry relative="1" as="geometry" />
        </mxCell>
        <mxCell id="bScUrp18sUeOc2WoEs5p-71" style="edgeStyle=orthogonalEdgeStyle;rounded=0;orthogonalLoop=1;jettySize=auto;html=1;exitX=1;exitY=0.5;exitDx=0;exitDy=0;entryX=0.665;entryY=0.016;entryDx=0;entryDy=0;entryPerimeter=0;" parent="bScUrp18sUeOc2WoEs5p-9" source="bScUrp18sUeOc2WoEs5p-20" target="bScUrp18sUeOc2WoEs5p-19" edge="1">
          <mxGeometry relative="1" as="geometry">
            <Array as="points">
              <mxPoint x="2020" y="350" />
              <mxPoint x="2020" y="1511" />
            </Array>
          </mxGeometry>
        </mxCell>
        <mxCell id="bScUrp18sUeOc2WoEs5p-72" style="edgeStyle=orthogonalEdgeStyle;rounded=0;orthogonalLoop=1;jettySize=auto;html=1;exitX=0.5;exitY=1;exitDx=0;exitDy=0;exitPerimeter=0;entryX=0.75;entryY=0.75;entryDx=0;entryDy=0;entryPerimeter=0;" parent="bScUrp18sUeOc2WoEs5p-9" source="bScUrp18sUeOc2WoEs5p-39" target="bScUrp18sUeOc2WoEs5p-42" edge="1">
          <mxGeometry relative="1" as="geometry">
            <Array as="points">
              <mxPoint x="607" y="1280" />
              <mxPoint x="117" y="1280" />
            </Array>
          </mxGeometry>
        </mxCell>
        <mxCell id="bScUrp18sUeOc2WoEs5p-73" value="&lt;font style=&quot;font-size: 18px;&quot;&gt;No&lt;/font&gt;" style="edgeLabel;html=1;align=center;verticalAlign=middle;resizable=0;points=[];" parent="bScUrp18sUeOc2WoEs5p-72" vertex="1" connectable="0">
          <mxGeometry x="-0.601" y="6" relative="1" as="geometry">
            <mxPoint y="-1" as="offset" />
          </mxGeometry>
        </mxCell>
        <mxCell id="mGsuLrHCB0cuBxFMvBK9-0" value="&lt;font style=&quot;font-size: 24px;&quot;&gt;Hiển thị thông báo&lt;/font&gt;&lt;div&gt;&lt;font style=&quot;font-size: 24px;&quot;&gt;&quot;Gương mặt không trùng khớp&quot;&lt;/font&gt;&lt;/div&gt;" style="rounded=1;whiteSpace=wrap;html=1;absoluteArcSize=1;arcSize=14;strokeWidth=2;" parent="bScUrp18sUeOc2WoEs5p-9" vertex="1">
          <mxGeometry x="240" y="810" width="240" height="90" as="geometry" />
        </mxCell>
        <mxCell id="mGsuLrHCB0cuBxFMvBK9-6" style="edgeStyle=orthogonalEdgeStyle;rounded=0;orthogonalLoop=1;jettySize=auto;html=1;exitX=0.5;exitY=1;exitDx=0;exitDy=0;entryX=0.5;entryY=0;entryDx=0;entryDy=0;entryPerimeter=0;" parent="bScUrp18sUeOc2WoEs5p-9" source="bScUrp18sUeOc2WoEs5p-30" target="bScUrp18sUeOc2WoEs5p-39" edge="1">
          <mxGeometry relative="1" as="geometry" />
        </mxCell>
        <mxCell id="mGsuLrHCB0cuBxFMvBK9-9" style="edgeStyle=orthogonalEdgeStyle;rounded=0;orthogonalLoop=1;jettySize=auto;html=1;exitX=1;exitY=0.5;exitDx=0;exitDy=0;entryX=0.307;entryY=0.126;entryDx=0;entryDy=0;entryPerimeter=0;" parent="bScUrp18sUeOc2WoEs5p-9" source="mGsuLrHCB0cuBxFMvBK9-0" target="bScUrp18sUeOc2WoEs5p-19" edge="1">
          <mxGeometry relative="1" as="geometry" />
        </mxCell>
        <mxCell id="bScUrp18sUeOc2WoEs5p-74" style="edgeStyle=orthogonalEdgeStyle;rounded=0;orthogonalLoop=1;jettySize=auto;html=1;exitX=0.5;exitY=0;exitDx=0;exitDy=0;entryX=0;entryY=0.25;entryDx=0;entryDy=0;" parent="bScUrp18sUeOc2WoEs5p-1" source="bScUrp18sUeOc2WoEs5p-7" target="bScUrp18sUeOc2WoEs5p-10" edge="1">
          <mxGeometry relative="1" as="geometry" />
        </mxCell>
        <mxCell id="bScUrp18sUeOc2WoEs5p-75" style="edgeStyle=orthogonalEdgeStyle;rounded=0;orthogonalLoop=1;jettySize=auto;html=1;exitX=0;exitY=0.5;exitDx=0;exitDy=0;exitPerimeter=0;entryX=1;entryY=0.25;entryDx=0;entryDy=0;" parent="bScUrp18sUeOc2WoEs5p-1" source="bScUrp18sUeOc2WoEs5p-17" target="bScUrp18sUeOc2WoEs5p-7" edge="1">
          <mxGeometry relative="1" as="geometry" />
        </mxCell>
        <mxCell id="bScUrp18sUeOc2WoEs5p-76" value="No" style="edgeLabel;html=1;align=center;verticalAlign=middle;resizable=0;points=[];" parent="bScUrp18sUeOc2WoEs5p-75" vertex="1" connectable="0">
          <mxGeometry x="0.4889" y="3" relative="1" as="geometry">
            <mxPoint as="offset" />
          </mxGeometry>
        </mxCell>
        <mxCell id="bScUrp18sUeOc2WoEs5p-77" style="edgeStyle=orthogonalEdgeStyle;rounded=0;orthogonalLoop=1;jettySize=auto;html=1;entryX=0.387;entryY=1.032;entryDx=0;entryDy=0;entryPerimeter=0;" parent="bScUrp18sUeOc2WoEs5p-1" source="bScUrp18sUeOc2WoEs5p-33" target="bScUrp18sUeOc2WoEs5p-8" edge="1">
          <mxGeometry relative="1" as="geometry" />
        </mxCell>
        <mxCell id="bScUrp18sUeOc2WoEs5p-78" value="Yes" style="edgeLabel;html=1;align=center;verticalAlign=middle;resizable=0;points=[];" parent="bScUrp18sUeOc2WoEs5p-77" vertex="1" connectable="0">
          <mxGeometry x="-0.2396" y="-4" relative="1" as="geometry">
            <mxPoint x="1" as="offset" />
          </mxGeometry>
        </mxCell>
        <mxCell id="bScUrp18sUeOc2WoEs5p-79" style="edgeStyle=orthogonalEdgeStyle;rounded=0;orthogonalLoop=1;jettySize=auto;html=1;exitX=0;exitY=0.5;exitDx=0;exitDy=0;exitPerimeter=0;entryX=0.121;entryY=1.053;entryDx=0;entryDy=0;entryPerimeter=0;" parent="bScUrp18sUeOc2WoEs5p-1" source="bScUrp18sUeOc2WoEs5p-42" target="bScUrp18sUeOc2WoEs5p-8" edge="1">
          <mxGeometry relative="1" as="geometry" />
        </mxCell>
        <mxCell id="bScUrp18sUeOc2WoEs5p-80" value="Yes" style="edgeLabel;html=1;align=center;verticalAlign=middle;resizable=0;points=[];" parent="bScUrp18sUeOc2WoEs5p-79" vertex="1" connectable="0">
          <mxGeometry x="-0.5542" y="5" relative="1" as="geometry">
            <mxPoint as="offset" />
          </mxGeometry>
        </mxCell>
        <mxCell id="bScUrp18sUeOc2WoEs5p-81" style="edgeStyle=orthogonalEdgeStyle;rounded=0;orthogonalLoop=1;jettySize=auto;html=1;exitX=0.25;exitY=1;exitDx=0;exitDy=0;entryX=0;entryY=0.75;entryDx=0;entryDy=0;" parent="bScUrp18sUeOc2WoEs5p-1" source="bScUrp18sUeOc2WoEs5p-8" target="bScUrp18sUeOc2WoEs5p-69" edge="1">
          <mxGeometry relative="1" as="geometry" />
        </mxCell>
        <mxCell id="bScUrp18sUeOc2WoEs5p-82" style="edgeStyle=orthogonalEdgeStyle;rounded=0;orthogonalLoop=1;jettySize=auto;html=1;exitX=0;exitY=0.5;exitDx=0;exitDy=0;exitPerimeter=0;entryX=0;entryY=1;entryDx=0;entryDy=0;" parent="bScUrp18sUeOc2WoEs5p-1" source="bScUrp18sUeOc2WoEs5p-52" target="bScUrp18sUeOc2WoEs5p-8" edge="1">
          <mxGeometry relative="1" as="geometry">
            <Array as="points">
              <mxPoint x="1127" y="1540" />
              <mxPoint x="-910" y="1540" />
            </Array>
          </mxGeometry>
        </mxCell>
        <mxCell id="bScUrp18sUeOc2WoEs5p-83" value="Yes" style="edgeLabel;html=1;align=center;verticalAlign=middle;resizable=0;points=[];" parent="bScUrp18sUeOc2WoEs5p-82" vertex="1" connectable="0">
          <mxGeometry x="-0.6293" y="6" relative="1" as="geometry">
            <mxPoint as="offset" />
          </mxGeometry>
        </mxCell>
        <mxCell id="bScUrp18sUeOc2WoEs5p-84" style="edgeStyle=orthogonalEdgeStyle;rounded=0;orthogonalLoop=1;jettySize=auto;html=1;exitX=0.5;exitY=1;exitDx=0;exitDy=0;exitPerimeter=0;entryX=0.582;entryY=1.008;entryDx=0;entryDy=0;entryPerimeter=0;" parent="bScUrp18sUeOc2WoEs5p-1" source="bScUrp18sUeOc2WoEs5p-14" target="bScUrp18sUeOc2WoEs5p-8" edge="1">
          <mxGeometry relative="1" as="geometry">
            <Array as="points">
              <mxPoint x="550" y="580" />
              <mxPoint x="-805" y="580" />
            </Array>
          </mxGeometry>
        </mxCell>
      </root>
    </mxGraphModel>
  </diagram>
</mxfile>
